# xmcd
#
# Track frame offsets:
#  150
#  13991
#  34457
#  51468
#  69099
#  94079
#  109139
#  131068
#  150859
#  165327
#  181899
#  194382
#  217704
#  234458
#  252771
#  273112
#  294379
#  317138
#
# Disc length: 4408 seconds
#
# Revision: 0
# Processed by: cddbd v1.5.2PL0 Copyright (c) Steve Scherf et al.
# Submitted via: Collectorz.com Music Collector 6.9
#
DISCID=f2113612
DTITLE=Marianne Faithfull - Dominion Theatre London, England 5/15/90
DYEAR=1990
DGENRE=Singer/Songwriter
TTITLE0=Falling From Grace
TTITLE1=Strange Weather
TTITLE2=Tower Of Song
TTITLE3=Conversation On A Bar Stool
TTITLE4=Guilt
TTITLE5=Blazing Away
TTITLE6=Sister Morphine
TTITLE7=Working Class Hero
TTITLE8=Boulevard Of Broken Dreams
TTITLE9=As Tears Go By
TTITLE10=When I Find My Life
TTITLE11=Why'd Ya Do It
TTITLE12=I'll Keep It With Mine
TTITLE13=The Ballad Of Lucy Jordan
TTITLE14=Times Square
TTITLE15=Broken English
TTITLE16=Penthouse Serenade
TTITLE17=She Moved Through The Fair
EXTD=
EXTT0=
EXTT1=
EXTT2=
EXTT3=
EXTT4=
EXTT5=
EXTT6=
EXTT7=
EXTT8=
EXTT9=
EXTT10=
EXTT11=
EXTT12=
EXTT13=
EXTT14=
EXTT15=
EXTT16=
EXTT17=
PLAYORDER=
